<svg xmlns="http://www.w3.org/2000/svg" version="1.0" width="100" height="100" viewBox="0 0 239 253" fill="#4D6BFE">
  <path d="M108.1 3.6C100.1 5.7 93.2 9.8 87 16 76.3 26.6 72.4 37 73.2 52.8c.5 8.1 1 10.2 4.2 16.6 1.9 4 5.8 9.7 8.6 12.6 5.3 5.6 5.5 6.3 2.5 13.7-4.6 11.2-22.7 18.4-38.9 15.4C26.1 106.7 9.9 83.7 16.5 64c5.1-15.3 24-21.3 28.6-9.1 2.1 5.3-3.5 13.1-9.4 13.1-1.4 0-3.9-1.1-5.5-2.5-2.5-2.1-3.1-2.3-3.6-.9-1.6 4.2 5.2 8.9 11.9 8.1 15.4-1.7 18.3-23.3 4.1-29.8-17.1-7.7-38.9 9.9-40.4 32.6C.7 98.6 16.1 119.6 39.3 126c19 5.3 40.7-.1 51.2-12.6 8.9-10.6 8.4-10.2 8.5-7.8 0 2.9-4.4 19.6-7 26.2-3.6 9.4-8.7 18.5-13.6 24.8-25 31.3-28.8 35.4-35 38-4.5 1.9-9.1 1.7-14.1-.5-7.3-3.4-9.7-12-4.7-16.6 3.6-3.4 7-3.2 10.5.6 2.5 2.7 3 2.9 3.6 1.3.9-2.4-1.7-6.6-5.1-8.3-6-2.9-15.8 3.1-17.2 10.5-.9 5.1.3 9.9 3.9 14.6 7.4 9.9 21.9 12.8 34.3 6.9 8.1-3.8 13.1-8.4 22.3-20.6C81 177 87.6 169.1 91.5 165c9-9.6 13.5-15.3 16.8-21.2 3.2-5.5 8.1-19.9 9.8-28.6 1.2-6.5 2.9-6.8 2.9-.6 0 7.8 6.1 24.2 16.9 45.9 13.7 27.5 15.4 34.4 11 46-1.2 3.3-4.6 8.6-8.1 12.8-3.3 4-6.9 8.9-7.9 10.9-3 6-2.1 14.4 1.9 17.4 2.1 1.7 4 1.8 2.4.2-2-2-1.3-6.5 1.5-9.8 1.4-1.7 5.6-5.2 9.3-7.6 18-11.8 24.1-26.7 19.1-46.3-1.1-4.6-5.3-15.4-9.2-24-4-8.6-8.2-18.5-9.5-22.1-2.5-6.8-7.4-28.5-7.3-32.3 0-2.2 0-2.2 1.7.3 4.2 6.3 12.6 13.9 18.5 16.8 7.9 3.9 13.3 5.1 22.6 5.2 15.3 0 28.8-5.4 38.8-15.6 9.7-9.9 14.3-20.6 14.3-33.5 0-15.9-8-29.3-21.4-35.5s-27.6 1-27.6 14c0 9.8 6.4 16 15.9 15.3 6-.4 9.1-2.9 9.1-7.4v-2.4l-3.3 2.5c-1.9 1.5-4.3 2.6-5.5 2.6-8.4 0-13.3-10.3-7.8-16.3 7-7.6 20-2.1 25.7 10.7 6.6 15-2.2 35.3-19.1 43.9-20.2 10.3-43.5 5.6-51.5-10.4-3.5-6.9-3.2-9.2 1.9-15.1C161.9 71 166 60.8 166 49c0-30-29.5-53.1-57.9-45.4m-5.7 59.9c3.7 3.4 3.6 8.7-.3 12.6-1.6 1.6-3.7 2.9-4.6 2.9-3.1 0-7.2-2.9-8.5-5.9-3.6-8.7 6.5-16 13.4-9.6m43.9-1.4c2.7 1.2 4.7 4.7 4.7 8 0 1.2-1.6 3.7-3.5 5.6-3 3-4 3.5-6.8 2.9-4.3-.8-6.7-3.9-6.7-8.8 0-6.9 5.9-10.6 12.3-7.7"/>
  <path d="M84 125.4c-13.2 8.8-22.3 10.2-41.3 6.6-15.5-2.9-23.6-2.5-30.3 1.7-2.6 1.6-4.9 3.3-5.1 3.8-.1.6 2.3 1.1 5.5 1.2 3.9.1 9.4 1.4 17.1 4.2 20.5 7.4 35.8 8.8 44.7 4.3 4.7-2.4 10.5-8.5 13.3-14.1 2.2-4.2 4.3-12.1 3.2-12.1-.3 0-3.5 2-7.1 4.4m63.5-1.2c1.9 9.2 8.1 18.3 15.1 22.4 8.8 5.2 22.9 4 45.1-3.8 8-2.8 13.6-4.1 17.5-4.2 5.4-.1 5.6-.2 4-2-5.5-6.1-18.5-8.1-31.8-5-4.4 1-11.9 1.8-16.9 1.8-10.5.1-18.4-2.5-26.6-8.7-6.1-4.6-7.3-4.7-6.4-.5m-35.6 24.6c-1.5 2.6-6.2 8.7-10.5 13.5-4.4 4.8-11.2 12.5-15.2 17-4.5 5-8.7 11-10.9 15.5-3.4 7.1-3.5 7.8-3.1 16.1.3 7.2.9 9.6 3 13.2 5.8 9.9 16.7 16.7 24.8 15.6 9-1.2 14.6-9.4 12.1-17.7-1.8-5.9-8.2-9.4-13.5-7.4-2.2.8-2 3.4.2 3.2 3.8-.3 5.1.3 7.1 3.6 2.9 4.7 2 9.2-2.4 11.3s-8 1.1-12.6-3.6c-4.6-4.6-6.3-10.4-5.5-19 .7-7.8 3.7-14.6 15.4-34.1 5.2-8.8 9.7-17.8 11.4-22.9 1.6-4.6 2.7-8.5 2.6-8.7-.2-.1-1.5 1.9-2.9 4.4m77.4 23.1c-5.2 2.4-9.6 9.4-9.7 15.5-.3 13 12.6 21.9 24.8 17.2 4.7-1.8 11-7.9 12.6-12.2 2.6-6.8-.7-17.1-6.4-20.1-4.9-2.6-16.2-2.8-21.3-.4m19.8 6.2c9.4 10.1-5.7 26-17 18-6.4-4.6-6.3-14.4.3-17.8 8.1-4.2 12.9-4.3 16.7-.2"/>
</svg>
